<?xml version="1.0" encoding="utf-8"?>
<!-- Generator: Adobe Illustrator 16.0.0, SVG Export Plug-In . SVG Version: 6.00 Build 0)  -->
<!DOCTYPE svg PUBLIC "-//W3C//DTD SVG 1.1//EN" "http://www.w3.org/Graphics/SVG/1.1/DTD/svg11.dtd">
<svg version="1.1" id="Layer_1" xmlns="http://www.w3.org/2000/svg" xmlns:xlink="http://www.w3.org/1999/xlink" x="0px" y="0px"
	 width="283.167px" height="57px" viewBox="0 0 283.167 57" enable-background="new 0 0 283.167 57" xml:space="preserve">
<linearGradient id="SVGID_1_" gradientUnits="userSpaceOnUse" x1="46.563" y1="18.2412" x2="27.563" y2="28.7412">
	<stop  offset="0" style="stop-color:#FFFFFF"/>
	<stop  offset="0.371" style="stop-color:#FDFDFD"/>
	<stop  offset="0.5047" style="stop-color:#F7F6F6"/>
	<stop  offset="0.6" style="stop-color:#EBEBEB"/>
	<stop  offset="0.6771" style="stop-color:#DADADA"/>
	<stop  offset="0.743" style="stop-color:#C5C5C4"/>
	<stop  offset="0.8015" style="stop-color:#AAAAA8"/>
	<stop  offset="0.8544" style="stop-color:#8A8A88"/>
	<stop  offset="0.903" style="stop-color:#656562"/>
	<stop  offset="0.9482" style="stop-color:#3B3A37"/>
	<stop  offset="0.9884" style="stop-color:#0E0D09"/>
	<stop  offset="0.9949" style="stop-color:#060501"/>
	<stop  offset="1" style="stop-color:#000000"/>
</linearGradient>
<polygon fill="url(#SVGID_1_)" points="53.895,4.882 36.204,37.271 38.344,41.396 60.439,1.004 44.073,1.004 30.778,26.798 
	32.963,31.032 46.442,4.882 "/>
<polygon fill="#FFC815" points="36.187,37.238 36.204,37.271 53.895,4.882 "/>
<polygon fill="#FFFFFF" points="17.365,1.004 1,1.004 30.87,55.059 33.089,51.008 7.581,4.882 15.009,4.882 36.108,45.482 
	38.344,41.396 "/>
<polygon fill="#FFFFFF" points="17.345,1 26.674,19.333 37.229,1 "/>
<g>
	<path fill="#FFFFFF" d="M67.93,32.507H55.628V29.12H67.93V32.507z"/>
	<path fill="#FFFFFF" d="M108.647,27.774c0,5.599-1.985,9.992-5.957,13.179c-3.743,2.939-8.625,4.406-14.646,4.406h-8.836V11.068
		h8.397c5.858,0,10.724,1.362,14.598,4.084C106.499,18.184,108.647,22.391,108.647,27.774z M102.202,28.146
		c0-7.733-5.533-11.601-16.599-11.601v23.341h1.757c4.297,0,7.763-0.911,10.399-2.737C100.721,35.105,102.202,32.105,102.202,28.146
		z"/>
	<path fill="#FFFFFF" d="M137.402,45.359h-17.234V11.068l17.234-0.047l0.146,6.126h-10.936V24.2h10.155v5.938h-10.155v8.91h10.936
		L137.402,45.359z"/>
	<path fill="#FFFFFF" d="M173.285,35.105c0,3-1.246,5.592-3.734,7.772c-2.49,2.181-5.33,3.271-8.52,3.271
		c-3.417,0-6.281-0.943-8.593-2.83c-1.563-1.361-2.995-2.66-4.296-3.898l4.102-3.896c2.473,2.846,5.484,4.5,9.032,4.963
		c1.66,0,3.011-0.532,4.052-1.601c1.041-1.067,1.563-2.39,1.563-3.967c0-1.887-1.417-3.464-4.248-4.733
		c-2.637-1.176-5.273-2.335-7.909-3.48c-2.832-1.763-4.248-4.207-4.248-7.331c0-2.753,1.237-4.996,3.711-6.728
		c2.246-1.547,4.849-2.321,7.812-2.321c4.425,0,7.746,1.222,9.959,3.666l-3.711,4.083c-2.051-1.485-4.198-2.227-6.443-2.227
		c-1.205,0-2.295,0.309-3.271,0.928c-1.105,0.681-1.66,1.578-1.66,2.692c0,1.362,0.863,2.475,2.588,3.341
		c0.195,0.093,1.643,0.603,4.345,1.531c1.726,0.588,3.336,1.392,4.833,2.413c1.822,1.238,3.025,2.506,3.613,3.807
		c0.227,0.463,0.472,1.236,0.732,2.318C173.187,33.652,173.285,34.395,173.285,35.105z"/>
	<path fill="#FFFFFF" d="M191.104,45.359h-6.396V11.068h6.396V45.359z"/>
	<path fill="#FFFFFF" d="M239.923,29.491c0,3.464-0.969,6.573-2.904,9.327c-1.938,2.754-4.613,4.764-8.031,6.031
		c-2.343,0.866-4.509,1.301-6.492,1.301c-2.541,0-4.459-0.202-5.762-0.604c-4.003-1.236-7.299-3.48-9.886-6.729
		c-2.589-3.248-3.882-6.867-3.882-10.858c0-4.702,1.937-8.808,5.81-12.319c3.875-3.511,8.284-5.267,13.231-5.267
		c3.645,0,6.72,0.573,9.227,1.717l1.809,0.789l-4.248,4.409c-1.823-0.959-4.002-1.439-6.543-1.439c-3.352,0-6.346,1.176-8.982,3.526
		c-2.637,2.351-3.954,5.104-3.954,8.259l0.099,0.14c0,3.28,1.17,6.204,3.515,8.77c2.44,2.691,5.37,4.037,8.788,4.037
		c2.637,0,5.029-0.696,7.177-2.088c2.312-1.516,3.692-3.449,4.149-5.801h-9.228v-5.568h16.11L239.923,29.491L239.923,29.491z"/>
	<path fill="#FFFFFF" d="M279.469,45.917l-20.896-19.86V45.73h-7.028V9.909l20.699,19.675V10.651h7.226V45.917z"/>
</g>
</svg>
